/* XPM */
static char *cubit___x__[] = {
/* columns rows colors chars-per-pixel */
"32 32 59 1 ",
"  c #000000",
". c #7D0300",
"X c #6B1700",
"o c #6B1800",
"O c #6A1900",
"+ c #532C00",
"@ c #532D00",
"# c #552C00",
"$ c #6E2C00",
"% c #712A00",
"& c #006400",
"* c #007A00",
"= c #007B00",
"- c #007C00",
"; c #800000",
": c #871B00",
"> c #841E00",
", c #A30300",
"< c #A80000",
"1 c #B20F00",
"2 c #AD1100",
"3 c #C20300",
"4 c #C30300",
"5 c #C80000",
"6 c #008200",
"7 c #008300",
"8 c #008400",
"9 c #008F00",
"0 c #009200",
"q c #009300",
"w c #00A000",
"e c #00A100",
"r c #00A200",
"t c #00A300",
"y c #00AB00",
"u c #00B800",
"i c #80A347",
"p c #80A446",
"a c #8BAF55",
"s c #92B15B",
"d c #A4AD5A",
"f c #A7B463",
"g c #AEB060",
"h c #ACB667",
"j c #AEB768",
"k c #B4B263",
"l c #BBB367",
"z c #BEB568",
"x c #B4BA6B",
"c c #C7BC6D",
"v c #C8BC6D",
"b c #CCB870",
"n c #CCC47E",
"m c #DCC178",
"M c #DFC379",
"N c #E4C47C",
"B c #D7C886",
"V c #E0CC8C",
"C c None",
/* pixels */
"CCCCCCCCCCCCCCCCCCCCCCCCCCCCCCCC",
"CCCCCCCCCCCCCCCCCCCCCCCCCCCCCCCC",
"CCCCCCCCCCCCCCCCCCCCCC155553>CCC",
"CCCCCCCCCCCCCCCCCCCCC255553:,CCC",
"CCCCCCCCsssssaCCCCCC@.....O<,CCC",
"CCCCCCCBVVVVnvCCCCCC@;;;;;o<,CCC",
"CCCCCCfxjjjjvNCCCCCC@;;;;;o<,CCC",
"CCCCCibbbbbgNNCCCCCC+;;;;;o<,CCC",
"CCCCCibbbbbgNNCCCCCC#;;;;;X<%CCC",
"CCCCCibbbbbgNNCCCCCC#;;;;;o$CCCC",
"CCCCCibbbbbkNmCCCCCCCCCCCCCCCCCC",
"CCCCCibbbbbgmCCCCCCCCCCCCCCCCCCC",
"CCCCCpzlllldCCCCCCCCCCCCCCCCCCCC",
"CCCCCCCCCCCCCCCCCttttytCCCCCCCCC",
"CCCCCCCCCCCCCCCCyuuuuuq6CCCCCCCC",
"CCCCCCCCCCCCCCCqttqtqq66CCCCCCCC",
"CCCCCCC CCCCCCC&&&&&&-86CCCCCCCC",
"CCCC        CCC&&&&&&-86CCCCCCCC",
"CC   CCCCC  CCC&&&&&&-86CCCCCCCC",
"CC  CCCCCCCCCCC&&&&&&-88CCCCCCCC",
"C  CCCCCCCCCCCC&&&&&&-8CCCCCCCCC",
"C  CCCCCCCCCCCC&&&&&&-CCCCCCCCCC",
"C  CCCCCCCCCCCCCCCCCCCCCCCCCCCCC",
"C  CCCCCCCCCCCCCCCCCCCCCCCCCCCCC",
"C  CCCCCCCCCCCCCCCCCCCCCCCCCCCCC",
"C  CCCCCCCCCCCCCCCC CCCCCCCC CCC",
"C  CCCCCCCCCCCCCCCC C CCCCCC   C",
"C  CCCCCCCCCC CCCCC  C  CCCC CCC",
"CC  CCCCCCCCC CCCCC CCC CCCC CCC",
"CCC   CCCC  C CCCCC CCC CCCC CCC",
"CCCC       CC CC CC  C  CCCC CCC",
"CCCCCCCCCCCCCCCCCCCCC CCCCCCCCCC"
};
